<svg xmlns="http://www.w3.org/2000/svg" shape-rendering="geometricPrecision" text-rendering="geometricPrecision" image-rendering="optimizeQuality" fill-rule="evenodd" clip-rule="evenodd" viewBox="0 0 512 506.47"><path fill-rule="nonzero" d="M294.23 17.11c0-9.42 9.3-17.11 20.86-17.11 11.59 0 20.88 7.64 20.88 17.11v74.84c0 9.42-9.29 17.11-20.88 17.11-11.56 0-20.86-7.64-20.86-17.11V17.11zm145.03 345.21v19.94c0 4.69-3.93 8.61-8.61 8.61H324.98c-4.69 0-8.61-3.88-8.61-8.61v-19.94c0-4.74 3.88-8.61 8.61-8.61h105.67c4.73 0 8.61 3.97 8.61 8.61zM377.81 238.1c37.02 0 70.6 15.04 94.88 39.32C496.96 301.69 512 335.24 512 372.3c0 36.97-15.04 70.56-39.34 94.83-24.25 24.3-57.8 39.34-94.85 39.34-37.03 0-70.56-15.04-94.84-39.3-24.32-24.27-39.34-57.85-39.34-94.87 0-37.06 15.04-70.61 39.31-94.88l.69-.64c24.24-23.9 57.53-38.68 94.18-38.68zm78.75 55.44c-20.15-20.14-48-32.61-78.75-32.61-30.5 0-58.14 12.25-78.19 32.02l-.55.59c-20.14 20.15-32.62 48.01-32.62 78.76 0 30.74 12.46 58.6 32.61 78.75 20.1 20.13 47.98 32.6 78.75 32.6 30.75 0 58.6-12.47 78.75-32.62 20.14-20.08 32.61-47.95 32.61-78.73 0-30.75-12.47-58.61-32.61-78.76zM56.81 242.28c-1.18 0-2.24-5.2-2.24-11.57 0-6.39.93-11.54 2.24-11.54h56.94c1.18 0 2.24 5.2 2.24 11.54 0 6.38-.93 11.57-2.24 11.57H56.81zm90.77 0c-1.18 0-2.24-5.2-2.24-11.57 0-6.39.93-11.54 2.24-11.54h56.94c1.18 0 2.24 5.2 2.24 11.54 0 6.38-.93 11.57-2.24 11.57h-56.94zm90.77 0c-1.18 0-2.24-5.2-2.24-11.57 0-6.39.93-11.54 2.24-11.54h56.94c1.18 0 2.24 5.15 2.24 11.49-5.7 3.55-11.19 7.44-16.44 11.62h-42.74zM56.94 308.51c-1.19 0-2.24-5.2-2.24-11.57 0-6.38.93-11.58 2.24-11.58h56.93c1.19 0 2.25 5.2 2.25 11.58 0 6.37-.94 11.57-2.25 11.57H56.94zm90.77 0c-1.19 0-2.25-5.2-2.25-11.57 0-6.38.94-11.58 2.25-11.58h56.93c1.19 0 2.25 5.2 2.25 11.58 0 6.37-.94 11.57-2.25 11.57h-56.93zm-90.65 66.28c-1.18 0-2.23-5.2-2.23-11.59 0-6.36.92-11.57 2.23-11.57H114c1.18 0 2.24 5.21 2.24 11.57 0 6.39-.93 11.59-2.24 11.59H57.06zm90.77 0c-1.18 0-2.23-5.2-2.23-11.59 0-6.36.92-11.57 2.23-11.57h56.94c1.18 0 2.24 5.21 2.24 11.57 0 6.39-.93 11.59-2.24 11.59h-56.94zM106.82 17.11c0-9.42 9.3-17.11 20.86-17.11 11.59 0 20.87 7.64 20.87 17.11v74.84c0 9.42-9.33 17.11-20.87 17.11-11.56 0-20.86-7.64-20.86-17.11V17.11zM22.98 163.63h397.38V77.46c0-2.94-1.19-5.53-3.09-7.43-1.89-1.9-4.6-3.08-7.44-3.08h-38.1c-6.36 0-11.56-5.2-11.56-11.57 0-6.38 5.2-11.58 11.56-11.58h38.1c9.34 0 17.7 3.76 23.82 9.88 6.14 6.14 9.89 14.5 9.89 23.82v136.81c-7.6-2.61-15.41-4.73-23.43-6.29v-21.37h.25H22.98V409.8c0 2.95 1.18 5.53 3.08 7.43 1.9 1.9 4.61 3.08 7.45 3.08h188.84c2.14 8.02 4.85 15.83 8.11 23.36H33.71c-9.3 0-17.7-3.76-23.82-9.89C3.77 427.71 0 419.35 0 410V77.55c0-9.29 3.77-17.7 9.89-23.82 6.12-6.13 14.49-9.89 23.82-9.89h40.68c6.37 0 11.57 5.2 11.57 11.57 0 6.39-5.2 11.59-11.57 11.59H33.71c-2.96 0-5.53 1.18-7.43 3.08-1.9 1.9-3.08 4.59-3.08 7.42v86.17h-.22v-.04zm158.95-96.68c-6.39 0-11.59-5.2-11.59-11.57 0-6.38 5.2-11.58 11.59-11.58h77.53c6.39 0 11.59 5.2 11.59 11.58 0 6.37-5.2 11.57-11.59 11.57h-77.53z"/></svg>