<?xml version="1.0" encoding="utf-8"?><svg version="1.1" id="Layer_1" xmlns="http://www.w3.org/2000/svg" xmlns:xlink="http://www.w3.org/1999/xlink" x="0px" y="0px" viewBox="0 0 122.88 95.21" style="enable-background:new 0 0 122.88 95.21" xml:space="preserve"><g><path d="M2.48,20.74h4.5v-9.86c0-1.37,1.11-2.48,2.48-2.48h4.41V2.48c0-1.37,1.11-2.48,2.48-2.48h40.26c1.37,0,2.48,1.11,2.48,2.48 V8.4h54.3c1.37,0,2.48,1.11,2.48,2.48v9.86h4.53c1.37,0,2.48,1.11,2.48,2.48c0,0.18-0.02,0.36-0.06,0.52l-8.68,63.81 c-0.28,2.08-1.19,4.01-2.59,5.41c-1.38,1.38-3.21,2.24-5.36,2.24H14.7c-2.16,0-4.03-0.87-5.43-2.26c-1.41-1.41-2.31-3.35-2.54-5.46 l-6.72-64c-0.14-1.36,0.85-2.58,2.21-2.72C2.31,20.75,2.39,20.75,2.48,20.74L2.48,20.74L2.48,20.74L2.48,20.74z M61.44,32 c7.44,0,14.18,3.02,19.06,7.89c4.88,4.88,7.89,11.61,7.89,19.06c0,7.44-3.02,14.18-7.89,19.06c-4.88,4.88-11.61,7.89-19.06,7.89 C54,85.9,47.26,82.88,42.38,78c-4.88-4.88-7.89-11.61-7.89-19.06c0-7.44,3.02-14.18,7.89-19.06C47.26,35.02,54,32,61.44,32 L61.44,32z M77.15,43.23c-4.02-4.02-9.58-6.51-15.71-6.51c-6.14,0-11.69,2.49-15.71,6.51c-4.02,4.02-6.51,9.58-6.51,15.71 c0,6.14,2.49,11.69,6.51,15.71c4.02,4.02,9.58,6.51,15.71,6.51c6.14,0,11.69-2.49,15.71-6.51c4.02-4.02,6.51-9.58,6.51-15.71 C83.66,52.81,81.18,47.25,77.15,43.23L77.15,43.23z M48.97,62.37c-0.24-0.26-0.43-0.55-0.56-0.87c-0.13-0.32-0.21-0.66-0.23-1.01 c-0.02-0.38,0.04-0.77,0.17-1.14c0.13-0.35,0.33-0.69,0.6-0.99l0.13-0.14c0.26-0.25,0.56-0.45,0.88-0.58 c0.33-0.14,0.67-0.22,1.03-0.24H51c0.38-0.02,0.77,0.04,1.14,0.17c0.35,0.13,0.69,0.33,0.98,0.59l0.01,0.01 c0.99,0.95,2.05,1.89,3.11,2.84l1.3,1.17l12.08-12.64c0.27-0.28,0.59-0.49,0.93-0.64c0.35-0.15,0.73-0.24,1.11-0.25 c0.4,0,0.76,0.05,1.13,0.2c0.34,0.13,0.67,0.33,0.95,0.6l0.06,0.05c0.28,0.27,0.49,0.59,0.64,0.92c0.15,0.35,0.24,0.73,0.25,1.11 v0.05c0,0.37-0.06,0.74-0.2,1.08c-0.13,0.34-0.33,0.67-0.6,0.95L59.84,68.32c-0.27,0.28-0.58,0.51-0.92,0.66 c-0.35,0.16-0.73,0.25-1.11,0.26H57.8c-0.38,0.01-0.75-0.04-1.11-0.17c-0.35-0.12-0.68-0.32-0.97-0.57 C53.59,66.53,50.92,64.42,48.97,62.37L48.97,62.37z M9.46,25.71H5.23l6.44,61.27c0.1,0.98,0.5,1.85,1.1,2.46 c0.5,0.5,1.17,0.81,1.93,0.81h91.5c0.75,0,1.38-0.3,1.87-0.79c0.62-0.62,1.03-1.53,1.17-2.55l8.32-61.19L9.46,25.71L9.46,25.71 L9.46,25.71z M11.94,13.37v7.36l98.97-1.05v-6.31h-54.3c-1.37,0-2.48-1.11-2.48-2.48V4.97h-35.3v5.92c0,1.37-1.11,2.48-2.48,2.48 L11.94,13.37L11.94,13.37L11.94,13.37z"/></g></svg>