<?xml version="1.0" encoding="utf-8"?><svg version="1.1" id="Layer_1" xmlns="http://www.w3.org/2000/svg" xmlns:xlink="http://www.w3.org/1999/xlink" x="0px" y="0px" viewBox="0 0 122.88 95.21" style="enable-background:new 0 0 122.88 95.21" xml:space="preserve"><g><path d="M2.48,20.74h4.5v-9.86c0-1.37,1.11-2.48,2.48-2.48h4.41V2.48c0-1.37,1.11-2.48,2.48-2.48h40.26c1.37,0,2.48,1.11,2.48,2.48 V8.4h54.3c1.37,0,2.48,1.11,2.48,2.48v9.86h4.53c1.37,0,2.48,1.11,2.48,2.48c0,0.18-0.02,0.36-0.06,0.52l-8.68,63.81 c-0.28,2.08-1.19,4.01-2.59,5.41c-1.38,1.38-3.21,2.24-5.36,2.24l-91.5,0c-2.16,0-4.03-0.87-5.43-2.26 c-1.41-1.41-2.31-3.35-2.54-5.46l-6.72-64c-0.14-1.36,0.85-2.58,2.21-2.72C2.31,20.75,2.39,20.75,2.48,20.74L2.48,20.74L2.48,20.74 L2.48,20.74z M61.44,32c7.44,0,14.18,3.02,19.06,7.89c4.88,4.88,7.89,11.61,7.89,19.05c0,7.44-3.02,14.18-7.89,19.06 c-4.88,4.88-11.61,7.89-19.06,7.89C54,85.9,47.26,82.88,42.38,78c-4.88-4.88-7.89-11.61-7.89-19.06s3.02-14.18,7.89-19.05 C47.26,35.02,54,32,61.44,32L61.44,32z M77.15,43.23c-4.02-4.02-9.58-6.51-15.71-6.51c-6.14,0-11.69,2.49-15.71,6.51 c-4.02,4.02-6.51,9.58-6.51,15.71c0,6.14,2.49,11.69,6.51,15.71c4.02,4.02,9.58,6.51,15.71,6.51c6.14,0,11.69-2.49,15.71-6.51 c4.02-4.02,6.51-9.58,6.51-15.71C83.66,52.81,81.18,47.25,77.15,43.23L77.15,43.23z M68.42,47c-0.31-0.28-0.66-0.44-1.05-0.42 c-0.39,0-0.74,0.15-1.03,0.46l-2.32,2.41l6.51,6.29l2.34-2.45c0.28-0.28,0.39-0.66,0.39-1.05c0-0.39-0.15-0.77-0.44-1.03L68.42,47 L68.42,47L68.42,47z M58.29,68.53c-0.85,0.28-1.73,0.55-2.59,0.83c-0.85,0.28-1.71,0.57-2.59,0.85c-2.04,0.66-3.16,1.03-3.4,1.1 c-0.24,0.07-0.09-0.88,0.42-2.85l1.62-6.2L61.94,51.6l6.51,6.27L58.29,68.53L58.29,68.53L58.29,68.53z M9.46,25.71H5.23l6.44,61.27 c0.1,0.98,0.5,1.85,1.1,2.46c0.5,0.5,1.17,0.81,1.93,0.81h91.5c0.75,0,1.38-0.3,1.87-0.79c0.62-0.62,1.03-1.53,1.17-2.55 l8.32-61.19L9.46,25.71L9.46,25.71L9.46,25.71z M11.94,13.37v7.36l98.97-1.05v-6.31h-54.3c-1.37,0-2.48-1.11-2.48-2.48V4.97h-35.3 v5.92c0,1.37-1.11,2.48-2.48,2.48L11.94,13.37L11.94,13.37L11.94,13.37z"/></g></svg>